Coordinates
version=1
nRows=11
nColumns=36
inDegrees=yes

Units are S.I. units (second, meters, Newtons, ...)
If the header above contains a line with 'inDegrees', this indicates whether rotational values are in degrees (yes) or radians (no).

endheader
time	pelvis_tilt	pelvis_list	pelvis_rotation	pelvis_tx	pelvis_ty	pelvis_tz	hip_flexion_r	hip_adduction_r	hip_rotation_r	knee_angle_r	knee_angle_r_beta	ankle_angle_r	subtalar_angle_r	mtp_angle_r	hip_flexion_l	hip_adduction_l	hip_rotation_l	knee_angle_l	knee_angle_l_beta	ankle_angle_l	subtalar_angle_l	mtp_angle_l	lumbar_extension	lumbar_bending	lumbar_rotation	arm_flex_r	arm_add_r	arm_rot_r	elbow_flex_r	pro_sup_r	arm_flex_l	arm_add_l	arm_rot_l	elbow_flex_l	pro_sup_l
      3.02083330	    -12.07496264	     -2.44402492	      7.48873793	     -0.35829263	      1.40569286	     -0.09460561	     24.08357104	     -5.96331055	      0.38279289	     54.55651407	      0.95219080	    -33.61042812	    -19.52359444	     -7.49999987	     23.34818628	     -6.39494649	      6.14759746	     34.08580027	      0.59490944	    -34.98128307	     -6.33522951	     -7.49999987	     -6.85233823	      2.54771632	     -1.55934517	     18.02819965	     -8.37395561	      9.13160164	     72.92446353	     80.88568000	     32.70346345	     -8.33931819	     13.41218869	     89.30996031	     65.11701208
      3.02500000	    -11.75593960	     -2.43374828	      7.61223759	     -0.35219183	      1.40535555	     -0.09044313	     23.92627341	     -5.92448073	      0.42258738	     54.28039868	      0.94737168	    -33.88380618	    -19.63253655	     -7.49999987	     23.49824808	     -7.25333311	      4.78735658	     33.93489028	      0.59227557	    -34.70591597	     -6.73688231	     -7.49999987	     -7.26410960	      2.33814919	     -1.25098296	     16.80968995	     -7.78637873	      7.70699817	     72.64641701	     85.88488902	     31.55717640	     -7.79936498	     12.53952993	     89.72246807	     68.53356622
      3.02916670	    -11.08571063	     -2.58373704	      7.57947207	     -0.34721723	      1.40803126	     -0.08708604	     23.75627758	     -5.25000774	      1.20993479	     54.58959118	      0.95276810	    -32.48092482	    -18.65322040	     -7.49999987	     23.25819270	     -8.05719347	      3.23440510	     33.94643735	      0.59247710	    -32.02680700	     -5.98810256	     -7.49999987	     -8.05479125	      2.30164970	     -0.72839417	     16.16291903	     -7.41453284	      7.09641223	     71.94560273	     85.76360821	     30.80247386	     -7.37110797	     11.93145802	     89.86183248	     68.51163892
      3.03333330	    -10.80035901	     -2.85329177	      7.63799777	     -0.34187891	      1.40570301	     -0.08327966	     24.05138644	     -4.29708752	      1.61614557	     54.95571388	      0.95915815	    -29.74674548	    -18.07148827	     -7.49999987	     23.13033662	     -8.74194084	      2.48926827	     33.13431837	      0.57830295	    -28.95900649	     -2.90121769	     -7.49999987	     -8.52133649	      2.36634959	     -0.15598764	     15.37011807	     -6.81232362	      6.35406049	     71.31788254	     81.83171757	     30.40297249	     -7.24371036	     11.78735040	     90.18448046	     67.32002738
      3.03750000	    -10.33974921	     -2.88707058	      6.94773161	     -0.33690022	      1.40873322	     -0.07914020	     23.81588698	     -3.64504007	      2.03537317	     54.23034103	      0.94649801	    -27.65082255	    -18.55663661	     -7.49999987	     22.39410168	     -9.25930251	      2.12391351	     32.55493952	      0.56819088	    -25.77835173	     -0.72536234	     -7.49999987	     -9.00373097	      2.15234683	      0.65342653	     15.05831229	     -6.07597080	      6.03674710	     70.14556094	     82.01049907	     29.62736588	     -7.56060332	     10.88185045	     90.33098689	     67.34984374
      3.04166670	    -10.11649931	     -2.87075779	      7.52991154	     -0.33668673	      1.40982240	     -0.07917085	     24.26368955	     -3.73548044	      2.14410038	     53.67491084	      0.93680392	    -27.54900679	    -18.33940147	     -7.49999987	     23.04715032	     -9.43063753	      1.86610191	     32.90189509	      0.57424640	    -23.52258275	     -3.08951358	     -7.49999987	     -9.79333700	      1.93563312	      0.57826858	     14.93911745	     -4.90692632	      5.04193142	     68.69117906	     82.22080183	     29.60663876	     -7.92485231	     10.35386868	     90.57808273	     67.40204271
      3.04583330	    -10.03384946	     -2.95672469	      7.13999670	     -0.33129246	      1.40597758	     -0.08385472	     24.82950681	     -4.30469603	      2.04478580	     53.68626308	      0.93700205	    -29.40232517	    -19.18716991	     -7.49999987	     23.09646570	     -9.19031761	      2.18139959	     32.82083603	      0.57283165	    -21.95967360	     -4.43051226	     -7.49999987	    -10.01977554	      2.48520093	      0.16947774	     15.94597309	     -4.11530682	      5.88107207	     66.00554873	     82.60363756	     28.24210761	     -8.46277421	      8.40671838	     91.69132719	     67.08227710
      3.05000000	     -9.72568166	     -2.76899351	      5.97600232	     -0.32022748	      1.40898995	     -0.09145646	     25.05239094	     -5.42688979	      2.26842776	     53.14691664	      0.92758868	    -30.03767865	    -18.85262683	     -7.49999987	     22.67093730	     -8.35901057	      3.59953767	     31.83300080	      0.55559067	    -20.27602161	     -5.88032440	     -7.49999987	    -10.29005813	      2.83633385	      1.30505948	     15.90847413	     -4.09374933	      5.94580883	     65.26728817	     82.61871746	     27.52861856	     -8.44734738	      8.15891023	     91.53298896	     67.05867522
      3.05416670	     -9.18660690	     -2.15108183	      5.30314565	     -0.31051548	      1.40840657	     -0.09104383	     24.76290003	     -6.74062892	      2.07885094	     52.75307523	      0.92071485	    -30.65107043	    -19.14358803	     -7.49999987	     21.33970162	     -7.18076617	      4.29530941	     30.48084610	      0.53199112	    -21.14732058	     -8.15669317	     -7.49999987	    -10.17856968	      2.85197245	      0.64214216	     17.48815142	     -3.34303381	      7.86767873	     60.48137028	     82.38622216	     26.19551126	     -8.51767411	      5.65367593	     90.85351994	     66.47982385
      3.05833330	     -9.20608495	     -1.54689782	      5.13298852	     -0.30539447	      1.39909537	     -0.09382668	     25.64670994	     -7.93693674	      2.37735572	     54.03297462	      0.94305331	    -28.77009554	    -17.95673089	     -7.49999987	     21.62060803	     -5.84738664	      5.38599972	     30.63860717	      0.53474457	    -20.15527630	    -10.56401238	     -7.49999987	     -9.77095668	      2.65645220	      0.84906625	     16.94749168	     -3.86138532	      8.04551476	     59.62111338	     82.04933760	     25.72207341	     -8.50899034	      5.44881829	     90.65119488	     66.33433376
      3.06250000	     -9.77353985	     -1.02272277	      5.28079526	     -0.30515509	      1.39683954	     -0.09281908	     26.84565399	     -8.84218675	      2.11029721	     54.53706751	      0.95185139	    -27.24231372	    -17.83280909	     -7.49999987	     23.00123655	     -4.94885659	      5.80138606	     30.79251121	      0.53743071	    -19.23500731	    -11.50888695	     -7.49999987	     -9.27536400	      2.43683205	      0.83195511	     16.39836782	     -4.46726852	      8.32360430	     59.24167297	     82.25425453	     25.03815952	     -8.59341330	      5.02879735	     91.22933756	     66.35730818
